# xmcd
#
# Track frame offsets:
#	150
#	10920
#	24855
#	38565
#	50910
#	62445
#	73950
#	84795
#	94485
#	106965
#	118605
#	138315
#	151170
#	161325
#	173235
#	185865
#	196800
#	208590
#	220230
#	231390
#	243900
#	255855
#	269160
#	281445
#	291585
#
# Disc length: 4021 seconds
#
# Revision: 1
# Processed by: cddbd v1.5.2PL0 Copyright (c) Steve Scherf et al.
# Submitted via: audiograbber 1.83.01
#
DISCID=6a0fb319
DTITLE=Various Artist - Original Country Disc 3
DYEAR=2018
DGENRE=Country
TTITLE0=Leroy Van Dyke - Walk On By
TTITLE1=Glen Campbell - Long Black Limousine
TTITLE2=Patsy Cline - She's Got You
TTITLE3=Ray Price - The Same Old Me
TTITLE4=Eddy Arnold - The Cattle Call
TTITLE5=Red Sovine and Webb Pierce - Why, Baby Why?
TTITLE6=Carl Smith - Don't Just Stand There
TTITLE7=The Louvin Brothers - I Don't Believe You've Met My Baby
TTITLE8=Skeets McDonald - Don't Let The Stars Get In Your Eyes
TTITLE9=Johnny Horton - The Battle Of New Orleans
TTITLE10=Marty Robbins - El Paso
TTITLE11=Johnny Cash - Folsom Prison Blues
TTITLE12=Roger Miller - When Two Worlds Collide
TTITLE13=Buck Owens - Kickin' Our Hearts Around
TTITLE14=Jim Reeves - Bimbo
TTITLE15=Ferlin Husky - Gone
TTITLE16=Porter Wagoner - Misery Loves Company
TTITLE17=Don Gibson - Sea Of Heartbreak
TTITLE18=Stonewall Jackson - Waterloo
TTITLE19=Webb Pierce - Back Street Affair
TTITLE20=Skeeter Davis - The End Of The World
TTITLE21=Slim Whitman - I'll Take You Home Again Kathleen
TTITLE22=Hank Williams Sr. - Your Cheatin' Heart
TTITLE23=George Jones - You're Gonna Change (Or I'm Gonna Leave)
TTITLE24=Willie Nelson - Touch Me
EXTD=
EXTT0=
EXTT1=
EXTT2=
EXTT3=
EXTT4=
EXTT5=
EXTT6=
EXTT7=
EXTT8=
EXTT9=
EXTT10=
EXTT11=
EXTT12=
EXTT13=
EXTT14=
EXTT15=
EXTT16=
EXTT17=
EXTT18=
EXTT19=
EXTT20=
EXTT21=
EXTT22=
EXTT23=
EXTT24=
PLAYORDER=
